<mxfile host="app.diagrams.net" modified="2022-03-26T05:14:14.855Z" agent="5.0 (X11)" etag="GrrMlgzBIl2vhDJfl2EJ" version="17.2.3" type="github" pages="2">
  <diagram id="y6zHq6lQ_J3xSZg7M48z" name="Introduction">
    <mxGraphModel dx="1398" dy="751" grid="1" gridSize="10" guides="1" tooltips="1" connect="1" arrows="1" fold="1" page="1" pageScale="1" pageWidth="850" pageHeight="1100" math="0" shadow="0">
      <root>
        <mxCell id="0" />
        <mxCell id="1" parent="0" />
        <mxCell id="Di7FYNCLXHuj9fUjnXUA-1" value="Open AdvanceJavaScript -&amp;gt; 4. NodeJS.drawio" style="text;html=1;strokeColor=none;fillColor=none;align=center;verticalAlign=middle;whiteSpace=wrap;rounded=0;fontFamily=Comfortaa;fontSource=https%3A%2F%2Ffonts.googleapis.com%2Fcss%3Ffamily%3DComfortaa;fontSize=35;" parent="1" vertex="1">
          <mxGeometry x="570" y="60" width="1200" height="90" as="geometry" />
        </mxCell>
      </root>
    </mxGraphModel>
  </diagram>
  <diagram id="uJ5LWGIrcrnfdSaOuP4g" name="REPL">
    <mxGraphModel dx="1398" dy="751" grid="1" gridSize="10" guides="1" tooltips="1" connect="1" arrows="1" fold="1" page="1" pageScale="1" pageWidth="1700" pageHeight="1100" math="0" shadow="0">
      <root>
        <mxCell id="YgIP1oCt232m2JHOr8eo-0" />
        <mxCell id="YgIP1oCt232m2JHOr8eo-1" parent="YgIP1oCt232m2JHOr8eo-0" />
        <mxCell id="bZ-jrlqmVhZ8fIApHqn_-0" value="REPL" style="text;html=1;strokeColor=none;fillColor=none;align=center;verticalAlign=middle;whiteSpace=wrap;rounded=0;fontFamily=Comfortaa;fontSource=https%3A%2F%2Ffonts.googleapis.com%2Fcss%3Ffamily%3DComfortaa;fontSize=50;fontStyle=1" vertex="1" parent="YgIP1oCt232m2JHOr8eo-1">
          <mxGeometry x="650" y="50" width="60" height="30" as="geometry" />
        </mxCell>
        <mxCell id="bZ-jrlqmVhZ8fIApHqn_-1" value="Read" style="text;html=1;strokeColor=none;fillColor=none;align=center;verticalAlign=middle;whiteSpace=wrap;rounded=0;fontFamily=Comfortaa;fontSource=https%3A%2F%2Ffonts.googleapis.com%2Fcss%3Ffamily%3DComfortaa;fontSize=35;" vertex="1" parent="YgIP1oCt232m2JHOr8eo-1">
          <mxGeometry x="640" y="330" width="60" height="30" as="geometry" />
        </mxCell>
        <mxCell id="bZ-jrlqmVhZ8fIApHqn_-2" value="&amp;gt; 3 + 5" style="rounded=0;whiteSpace=wrap;html=1;fontFamily=Comfortaa;fontSource=https%3A%2F%2Ffonts.googleapis.com%2Fcss%3Ffamily%3DComfortaa;fontSize=35;fillColor=none;" vertex="1" parent="YgIP1oCt232m2JHOr8eo-1">
          <mxGeometry x="810" y="315" width="330" height="60" as="geometry" />
        </mxCell>
        <mxCell id="bZ-jrlqmVhZ8fIApHqn_-3" value="Evaluate" style="text;html=1;strokeColor=none;fillColor=none;align=center;verticalAlign=middle;whiteSpace=wrap;rounded=0;fontFamily=Comfortaa;fontSource=https%3A%2F%2Ffonts.googleapis.com%2Fcss%3Ffamily%3DComfortaa;fontSize=35;" vertex="1" parent="YgIP1oCt232m2JHOr8eo-1">
          <mxGeometry x="640" y="430" width="60" height="30" as="geometry" />
        </mxCell>
        <mxCell id="bZ-jrlqmVhZ8fIApHqn_-4" value="It will take 3 + 5" style="rounded=0;whiteSpace=wrap;html=1;fontFamily=Comfortaa;fontSource=https%3A%2F%2Ffonts.googleapis.com%2Fcss%3Ffamily%3DComfortaa;fontSize=35;fillColor=none;" vertex="1" parent="YgIP1oCt232m2JHOr8eo-1">
          <mxGeometry x="810" y="415" width="330" height="60" as="geometry" />
        </mxCell>
        <mxCell id="bZ-jrlqmVhZ8fIApHqn_-6" value="Print" style="text;html=1;strokeColor=none;fillColor=none;align=center;verticalAlign=middle;whiteSpace=wrap;rounded=0;fontFamily=Comfortaa;fontSource=https%3A%2F%2Ffonts.googleapis.com%2Fcss%3Ffamily%3DComfortaa;fontSize=35;" vertex="1" parent="YgIP1oCt232m2JHOr8eo-1">
          <mxGeometry x="640" y="535" width="60" height="30" as="geometry" />
        </mxCell>
        <mxCell id="bZ-jrlqmVhZ8fIApHqn_-7" value="8" style="rounded=0;whiteSpace=wrap;html=1;fontFamily=Comfortaa;fontSource=https%3A%2F%2Ffonts.googleapis.com%2Fcss%3Ffamily%3DComfortaa;fontSize=35;fillColor=none;" vertex="1" parent="YgIP1oCt232m2JHOr8eo-1">
          <mxGeometry x="810" y="520" width="330" height="60" as="geometry" />
        </mxCell>
        <mxCell id="bZ-jrlqmVhZ8fIApHqn_-8" value="Loop" style="text;html=1;strokeColor=none;fillColor=none;align=center;verticalAlign=middle;whiteSpace=wrap;rounded=0;fontFamily=Comfortaa;fontSource=https%3A%2F%2Ffonts.googleapis.com%2Fcss%3Ffamily%3DComfortaa;fontSize=35;" vertex="1" parent="YgIP1oCt232m2JHOr8eo-1">
          <mxGeometry x="640" y="640" width="60" height="30" as="geometry" />
        </mxCell>
        <mxCell id="bZ-jrlqmVhZ8fIApHqn_-9" value="&amp;gt;_" style="rounded=0;whiteSpace=wrap;html=1;fontFamily=Comfortaa;fontSource=https%3A%2F%2Ffonts.googleapis.com%2Fcss%3Ffamily%3DComfortaa;fontSize=35;fillColor=none;" vertex="1" parent="YgIP1oCt232m2JHOr8eo-1">
          <mxGeometry x="810" y="620" width="330" height="60" as="geometry" />
        </mxCell>
        <mxCell id="bZ-jrlqmVhZ8fIApHqn_-11" value="Run JavaScript in console mode (just like DevTool on the Browser" style="text;html=1;strokeColor=none;fillColor=none;align=center;verticalAlign=middle;whiteSpace=wrap;rounded=0;fontFamily=Comfortaa;fontSource=https%3A%2F%2Ffonts.googleapis.com%2Fcss%3Ffamily%3DComfortaa;fontSize=35;fontStyle=2" vertex="1" parent="YgIP1oCt232m2JHOr8eo-1">
          <mxGeometry x="455" y="140" width="430" height="30" as="geometry" />
        </mxCell>
      </root>
    </mxGraphModel>
  </diagram>
</mxfile>
